<svg width="94" height="20" viewBox="0 0 94 20" fill="none" xmlns="http://www.w3.org/2000/svg">
<path d="M4.648 6.058L3.01 10.58H6.342L4.704 6.058H4.648ZM1.596 14.5H0.168L3.948 4.476H5.404L9.184 14.5H7.756L6.79 11.784H2.576L1.596 14.5ZM15.8001 14.5H14.5681V13.548H14.5121C14.3161 13.884 14.0128 14.164 13.6021 14.388C13.2008 14.612 12.7808 14.724 12.3421 14.724C11.5021 14.724 10.8534 14.486 10.3961 14.01C9.94809 13.5247 9.72409 12.8387 9.72409 11.952V7.64H11.0121V11.868C11.0401 12.988 11.6048 13.548 12.7061 13.548C13.2194 13.548 13.6488 13.3427 13.9941 12.932C14.3394 12.512 14.5121 12.0127 14.5121 11.434V7.64H15.8001V14.5ZM20.1523 14.612C19.5923 14.612 19.1257 14.4393 18.7523 14.094C18.3883 13.7487 18.2017 13.268 18.1923 12.652V8.816H16.9883V7.64H18.1923V5.54H19.4803V7.64H21.1603V8.816H19.4803V12.232C19.4803 12.6893 19.569 13.002 19.7463 13.17C19.9237 13.3287 20.1243 13.408 20.3483 13.408C20.451 13.408 20.549 13.3987 20.6423 13.38C20.745 13.352 20.8383 13.3193 20.9223 13.282L21.3283 14.43C20.9923 14.5513 20.6003 14.612 20.1523 14.612ZM21.9252 11.07C21.9252 10.0153 22.2565 9.14267 22.9192 8.452C23.5912 7.76133 24.4359 7.416 25.4532 7.416C26.4705 7.416 27.3105 7.76133 27.9732 8.452C28.6452 9.14267 28.9812 10.0153 28.9812 11.07C28.9812 12.134 28.6452 13.0067 27.9732 13.688C27.3105 14.3787 26.4705 14.724 25.4532 14.724C24.4359 14.724 23.5912 14.3787 22.9192 13.688C22.2565 12.9973 21.9252 12.1247 21.9252 11.07ZM23.2132 11.07C23.2132 11.8073 23.4279 12.4047 23.8572 12.862C24.2865 13.3193 24.8185 13.548 25.4532 13.548C26.0879 13.548 26.6199 13.3193 27.0492 12.862C27.4785 12.4047 27.6932 11.8073 27.6932 11.07C27.6932 10.342 27.4785 9.74933 27.0492 9.292C26.6105 8.82533 26.0785 8.592 25.4532 8.592C24.8279 8.592 24.2959 8.82533 23.8572 9.292C23.4279 9.74933 23.2132 10.342 23.2132 11.07ZM35.3328 12.596C35.3328 13.1933 35.0715 13.6973 34.5488 14.108C34.0262 14.5187 33.3682 14.724 32.5748 14.724C31.8842 14.724 31.2775 14.5467 30.7548 14.192C30.2322 13.828 29.8588 13.352 29.6348 12.764L30.7828 12.274C30.9508 12.6847 31.1935 13.0067 31.5108 13.24C31.8375 13.464 32.1922 13.576 32.5748 13.576C32.9855 13.576 33.3262 13.4873 33.5968 13.31C33.8768 13.1327 34.0168 12.9227 34.0168 12.68C34.0168 12.2413 33.6808 11.9193 33.0088 11.714L31.8328 11.42C30.4982 11.084 29.8308 10.44 29.8308 9.488C29.8308 8.86267 30.0828 8.36333 30.5868 7.99C31.1002 7.60733 31.7535 7.416 32.5468 7.416C33.1535 7.416 33.6995 7.56067 34.1848 7.85C34.6795 8.13933 35.0248 8.52667 35.2208 9.012L34.0728 9.488C33.9422 9.19867 33.7275 8.97467 33.4288 8.816C33.1395 8.648 32.8128 8.564 32.4488 8.564C32.1128 8.564 31.8095 8.648 31.5388 8.816C31.2775 8.984 31.1468 9.18933 31.1468 9.432C31.1468 9.824 31.5155 10.104 32.2528 10.272L33.2888 10.538C34.6515 10.874 35.3328 11.56 35.3328 12.596ZM37.4603 12.4C37.4603 12.736 37.6003 13.016 37.8803 13.24C38.1696 13.464 38.5056 13.576 38.8883 13.576C39.4296 13.576 39.9103 13.3753 40.3303 12.974C40.7596 12.5727 40.9743 12.1013 40.9743 11.56C40.5729 11.2427 40.0129 11.084 39.2943 11.084C38.7716 11.084 38.3329 11.21 37.9783 11.462C37.6329 11.714 37.4603 12.0267 37.4603 12.4ZM39.1263 7.416C40.0783 7.416 40.8296 7.67267 41.3803 8.186C41.9309 8.69 42.2063 9.38533 42.2063 10.272V14.5H40.9743V13.548H40.9183C40.3863 14.332 39.6769 14.724 38.7903 14.724C38.0343 14.724 37.3996 14.5 36.8863 14.052C36.3823 13.604 36.1303 13.044 36.1303 12.372C36.1303 11.6627 36.3963 11.098 36.9283 10.678C37.4696 10.258 38.1883 10.048 39.0843 10.048C39.8496 10.048 40.4796 10.188 40.9743 10.468V10.174C40.9743 9.726 40.7969 9.348 40.4423 9.04C40.0876 8.72267 39.6723 8.564 39.1963 8.564C38.4776 8.564 37.9083 8.86733 37.4883 9.474L36.3543 8.76C36.9796 7.864 37.9036 7.416 39.1263 7.416ZM46.8543 14.5H45.5663L42.7943 7.64H44.1943L46.2103 12.96H46.2383L48.2823 7.64H49.6543L46.8543 14.5ZM53.3699 14.724C52.3619 14.724 51.5312 14.3787 50.8779 13.688C50.2245 12.9973 49.8979 12.1247 49.8979 11.07C49.8979 10.0247 50.2152 9.15667 50.8499 8.466C51.4845 7.766 52.2965 7.416 53.2859 7.416C54.3032 7.416 55.1105 7.74733 55.7079 8.41C56.3145 9.06333 56.6179 9.98267 56.6179 11.168L56.6039 11.308H51.2139C51.2325 11.98 51.4565 12.5213 51.8859 12.932C52.3152 13.3427 52.8285 13.548 53.4259 13.548C54.2472 13.548 54.8912 13.1373 55.3579 12.316L56.5059 12.876C56.1979 13.4547 55.7685 13.9073 55.2179 14.234C54.6765 14.5607 54.0605 14.724 53.3699 14.724ZM51.3119 10.244H55.2459C55.2085 9.768 55.0125 9.376 54.6579 9.068C54.3125 8.75067 53.8459 8.592 53.2579 8.592C52.7725 8.592 52.3525 8.74133 51.9979 9.04C51.6525 9.33867 51.4239 9.74 51.3119 10.244ZM60.9441 13.548C61.5787 13.548 62.0967 13.3193 62.4981 12.862C62.9181 12.4047 63.1281 11.8073 63.1281 11.07C63.1281 10.3513 62.9181 9.75867 62.4981 9.292C62.0874 8.82533 61.5694 8.592 60.9441 8.592C60.3281 8.592 59.8101 8.82533 59.3901 9.292C58.9701 9.75867 58.7601 10.3513 58.7601 11.07C58.7601 11.798 58.9701 12.3907 59.3901 12.848C59.8101 13.3147 60.3281 13.548 60.9441 13.548ZM60.7341 14.724C59.8381 14.724 59.0681 14.3693 58.4241 13.66C57.7894 12.9413 57.4721 12.078 57.4721 11.07C57.4721 10.062 57.7894 9.19867 58.4241 8.48C59.0681 7.77067 59.8381 7.416 60.7341 7.416C61.2381 7.416 61.6954 7.52333 62.1061 7.738C62.5261 7.95267 62.8481 8.23733 63.0721 8.592H63.1281L63.0721 7.64V4.476H64.3601V14.5H63.1281V13.548H63.0721C62.8481 13.9027 62.5261 14.1873 62.1061 14.402C61.6954 14.6167 61.2381 14.724 60.7341 14.724Z" fill="#7A8A98"/>
<path fill-rule="evenodd" clip-rule="evenodd" d="M84.8396 17.7085C84.8396 18.1687 84.4664 18.5418 84.0062 18.5418C83.546 18.5418 83.1729 18.1687 83.1729 17.7085V13.9585H82.6776C82.5313 13.9586 82.3516 13.9587 82.2045 13.9403L82.2017 13.94C82.0964 13.9268 81.6163 13.867 81.3877 13.3957C81.1586 12.9232 81.4102 12.5065 81.4646 12.4163L81.4666 12.413C81.5435 12.2855 81.6553 12.1431 81.7472 12.0259L81.767 12.0007C82.0125 11.6875 82.3308 11.284 82.6479 10.9582C82.8061 10.7956 82.9871 10.6279 83.1796 10.4955C83.3506 10.3778 83.6424 10.2085 84.0013 10.2085C84.3602 10.2085 84.6521 10.3778 84.8231 10.4955C85.0155 10.6279 85.1966 10.7956 85.3547 10.9582C85.6718 11.284 85.9901 11.6875 86.2356 12.0007L86.2554 12.0259C86.3473 12.1431 86.4591 12.2854 86.536 12.413L86.538 12.4163C86.5924 12.5065 86.8441 12.9233 86.6149 13.3957C86.3863 13.867 85.9062 13.9268 85.8009 13.94L85.7981 13.9403C85.6511 13.9587 85.4713 13.9586 85.325 13.9585H84.8396V17.7085Z" fill="#7A8A98"/>
<path d="M75.043 10.4168C75.043 8.21538 76.5272 6.36116 78.5498 5.79949C78.7132 5.75413 78.7948 5.73145 78.8419 5.68325C78.889 5.63503 78.9096 5.55336 78.9507 5.39002C79.5202 3.1306 81.5652 1.4585 84.0013 1.4585C86.6804 1.4585 88.887 3.48125 89.1773 6.08286C89.2001 6.28732 89.2115 6.38958 89.2636 6.44873C89.3156 6.50789 89.4171 6.5325 89.6199 6.58171C91.5365 7.04674 92.9596 8.77391 92.9596 10.8335C92.9596 13.2497 91.0009 15.2085 88.5846 15.2085H87.6685C87.2863 15.2085 87.0951 15.2085 87.0701 15.1767C87.0579 15.1612 87.0547 15.1534 87.0527 15.1337C87.0486 15.0936 87.2112 14.9354 87.5367 14.6191C88.3618 13.8172 88.3805 12.4982 87.5786 11.6731C87.0381 10.9987 86.5276 10.2853 85.8662 9.72208C85.3418 9.27541 84.7035 8.9585 84.0013 8.9585C83.2991 8.9585 82.6608 9.27541 82.1364 9.72208C81.475 10.2853 80.9644 10.9987 80.4241 11.6731C79.6221 12.4982 79.6408 13.8172 80.4659 14.6191C80.7914 14.9354 80.9541 15.0936 80.9499 15.1337C80.9479 15.1534 80.9447 15.1612 80.9325 15.1767C80.9074 15.2085 80.7163 15.2085 80.3342 15.2085H79.8346C77.1883 15.2085 75.043 13.0632 75.043 10.4168Z" fill="#7A8A98"/>
</svg>
