<svg width="32" height="32" viewBox="0 0 32 32" fill="none" xmlns="http://www.w3.org/2000/svg">
<path d="M23.3028 12.0147C23.3127 12.0147 23.3227 12.0147 23.3327 12.0147C26.6464 12.0147 29.3327 14.7059 29.3327 18.0257C29.3327 21.1197 26.9993 23.6677 23.9993 24M23.3028 12.0147C23.3225 11.7947 23.3327 11.5719 23.3327 11.3468C23.3327 7.28927 20.0495 4 15.9993 4C12.1637 4 9.01579 6.95023 8.69324 10.7092M23.3028 12.0147C23.1664 13.5301 22.5708 14.9128 21.6564 16.022M8.69324 10.7092C5.31132 11.0316 2.66602 13.8852 2.66602 17.3577C2.66602 20.5889 4.95636 23.2843 7.99935 23.9031M8.69324 10.7092C8.9037 10.6892 9.11699 10.6789 9.33268 10.6789C10.8338 10.6789 12.219 11.1759 13.3333 12.0147" stroke="#3B7CED" stroke-width="1.5" stroke-linecap="round" stroke-linejoin="round"/>
<path d="M15.9993 28V17.3334M15.9993 28C15.0657 28 13.3214 25.341 12.666 24.6667M15.9993 28C16.9329 28 18.6773 25.341 19.3327 24.6667" stroke="#3B7CED" stroke-width="1.5" stroke-linecap="round" stroke-linejoin="round"/>
</svg>
