<svg width="98" height="98" viewBox="0 0 98 98" fill="none" xmlns="http://www.w3.org/2000/svg">
<rect width="98" height="98" rx="49" fill="#E2E6E9"/>
<path fill-rule="evenodd" clip-rule="evenodd" d="M48.4255 24H48.5745C50.7504 24 52.4852 24 53.8453 24.1828C55.2497 24.3716 56.4035 24.7718 57.3159 25.6841C58.2283 26.5965 58.6284 27.7503 58.8172 29.1547C59 30.5149 59 32.2496 59 34.4256V34.5744C59 36.7504 59 38.4851 58.8172 39.8453C58.6284 41.2497 58.2283 42.4035 57.3159 43.3159C56.4035 44.2283 55.2497 44.6284 53.8453 44.8172C52.4851 45 50.7504 45 48.5744 45H48.4256C46.2496 45 44.5149 45 43.1547 44.8172C41.7503 44.6284 40.5965 44.2283 39.6841 43.3159C38.7718 42.4035 38.3716 41.2497 38.1828 39.8453C38 38.4852 38 36.7504 38 34.5745V34.4255C38 32.2496 38 30.5149 38.1828 29.1547C38.3716 27.7503 38.7718 26.5965 39.6841 25.6841C40.5965 24.7718 41.7503 24.3716 43.1547 24.1828C44.5149 24 46.2496 24 48.4255 24ZM43.4212 26.165C42.2386 26.324 41.5772 26.6195 41.0984 27.0984C40.6195 27.5772 40.324 28.2386 40.165 29.4212C40.0021 30.6326 40 32.2326 40 34.5C40 36.7674 40.0021 38.3674 40.165 39.5788C40.324 40.7614 40.6195 41.4228 41.0984 41.9017C41.5772 42.3805 42.2386 42.676 43.4212 42.835C44.6326 42.9979 46.2326 43 48.5 43C50.7674 43 52.3674 42.9979 53.5788 42.835C54.7614 42.676 55.4228 42.3805 55.9017 41.9017C56.3805 41.4228 56.676 40.7614 56.835 39.5788C56.9979 38.3674 57 36.7674 57 34.5C57 32.2326 56.9979 30.6326 56.835 29.4212C56.676 28.2386 56.3805 27.5772 55.9017 27.0984C55.4228 26.6195 54.7614 26.324 53.5788 26.165C52.3674 26.0021 50.7674 26 48.5 26C46.2326 26 44.6326 26.0021 43.4212 26.165Z" fill="#7A8A98"/>
<path d="M55 30C55 31.1046 54.1046 32 53 32C51.8954 32 51 31.1046 51 30C51 28.8954 51.8954 28 53 28C54.1046 28 55 28.8954 55 30Z" fill="#7A8A98"/>
<path fill-rule="evenodd" clip-rule="evenodd" d="M40.8647 35.2527C43.6778 35.1952 46.4275 36.072 48.624 37.7364C50.6525 39.2734 52.0902 41.3925 52.7153 43.7708C52.7731 43.9907 52.728 44.2249 52.5927 44.4077C52.4574 44.5904 52.2465 44.7019 52.0193 44.7108C51.0208 44.75 49.8581 44.75 48.5126 44.75H48.4428C46.2521 44.75 44.5314 44.75 43.188 44.5694C41.8114 44.3843 40.7191 43.9973 39.8609 43.1391C39.1151 42.3932 38.7217 41.4783 38.5099 40.3428C38.3024 39.2309 38.2597 37.8523 38.25 36.1397C38.2479 35.7655 38.5219 35.447 38.8922 35.3932C39.5447 35.2985 40.2042 35.2514 40.8647 35.2527ZM51.5687 38.4582C51.3393 38.1904 51.4291 37.77 51.7648 37.6622C52.622 37.387 53.4998 37.2468 54.3878 37.2501C55.7039 37.249 57.0027 37.5669 58.246 38.1805C58.5202 38.3158 58.6848 38.6039 58.6621 38.9088C58.5267 40.7226 58.1763 42.1024 57.1396 43.1391C56.3573 43.9214 55.3806 44.3122 54.1712 44.5154C54.264 44.1502 54.2647 43.7629 54.1666 43.3894C53.688 41.5687 52.7945 39.8893 51.5687 38.4582Z" fill="#7A8A98"/>
<path d="M26.2095 64.128C25.3615 64.128 24.6522 63.8427 24.0815 63.272C23.5162 62.7013 23.2335 61.9893 23.2335 61.136C23.2335 60.2827 23.5162 59.5733 24.0815 59.008C24.6468 58.432 25.3562 58.144 26.2095 58.144C27.0735 58.144 27.7748 58.456 28.3135 59.08L27.7855 59.592C27.3748 59.096 26.8495 58.848 26.2095 58.848C25.5748 58.848 25.0442 59.0613 24.6175 59.488C24.1962 59.9093 23.9855 60.4587 23.9855 61.136C23.9855 61.8133 24.1962 62.3627 24.6175 62.784C25.0442 63.2107 25.5748 63.424 26.2095 63.424C26.8762 63.424 27.4548 63.144 27.9455 62.584L28.4815 63.104C28.2095 63.4293 27.8762 63.6827 27.4815 63.864C27.0868 64.04 26.6628 64.128 26.2095 64.128ZM29.8715 58.272V64H29.1355V58.272H29.8715ZM31.7203 58.728C31.7203 58.872 31.6696 58.9947 31.5683 59.096C31.467 59.1973 31.3443 59.248 31.2003 59.248C31.0563 59.248 30.9336 59.1973 30.8323 59.096C30.731 58.9947 30.6803 58.872 30.6803 58.728C30.6803 58.584 30.731 58.4613 30.8323 58.36C30.9336 58.2587 31.0563 58.208 31.2003 58.208C31.3443 58.208 31.467 58.2587 31.5683 58.36C31.6696 58.4613 31.7203 58.584 31.7203 58.728ZM31.5683 60.08V64H30.8323V60.08H31.5683ZM34.2791 64.128C33.6977 64.128 33.2151 63.9307 32.8311 63.536C32.4524 63.1307 32.2631 62.632 32.2631 62.04C32.2631 61.4373 32.4524 60.9387 32.8311 60.544C33.2151 60.1493 33.6977 59.952 34.2791 59.952C34.6791 59.952 35.0284 60.0533 35.3271 60.256C35.6257 60.4533 35.8497 60.728 35.9991 61.08L35.3271 61.36C35.1191 60.8693 34.7537 60.624 34.2311 60.624C33.8951 60.624 33.6044 60.76 33.3591 61.032C33.1191 61.304 32.9991 61.64 32.9991 62.04C32.9991 62.44 33.1191 62.776 33.3591 63.048C33.6044 63.32 33.8951 63.456 34.2311 63.456C34.7697 63.456 35.1484 63.2107 35.3671 62.72L36.0231 63C35.8791 63.352 35.6524 63.6293 35.3431 63.832C35.0391 64.0293 34.6844 64.128 34.2791 64.128ZM40.1148 64H39.2268L38.0028 62.152L37.4028 62.744V64H36.6668V58.272H37.4028V61.8L39.0988 60.08H40.0428V60.112L38.5148 61.632L40.1148 63.968V64ZM43.8438 64.064C43.5238 64.064 43.2571 63.9653 43.0438 63.768C42.8358 63.5707 42.7291 63.296 42.7238 62.944V60.752H42.0358V60.08H42.7238V58.88H43.4598V60.08H44.4198V60.752H43.4598V62.704C43.4598 62.9653 43.5104 63.144 43.6118 63.24C43.7131 63.3307 43.8278 63.376 43.9557 63.376C44.0144 63.376 44.0704 63.3707 44.1238 63.36C44.1824 63.344 44.2358 63.3253 44.2838 63.304L44.5158 63.96C44.3238 64.0293 44.0998 64.064 43.8438 64.064ZM44.8568 62.04C44.8568 61.4373 45.0461 60.9387 45.4248 60.544C45.8088 60.1493 46.2915 59.952 46.8728 59.952C47.4541 59.952 47.9341 60.1493 48.3128 60.544C48.6968 60.9387 48.8888 61.4373 48.8888 62.04C48.8888 62.648 48.6968 63.1467 48.3128 63.536C47.9341 63.9307 47.4541 64.128 46.8728 64.128C46.2915 64.128 45.8088 63.9307 45.4248 63.536C45.0461 63.1413 44.8568 62.6427 44.8568 62.04ZM45.5928 62.04C45.5928 62.4613 45.7155 62.8027 45.9608 63.064C46.2061 63.3253 46.5101 63.456 46.8728 63.456C47.2355 63.456 47.5395 63.3253 47.7848 63.064C48.0301 62.8027 48.1528 62.4613 48.1528 62.04C48.1528 61.624 48.0301 61.2853 47.7848 61.024C47.5341 60.7573 47.2301 60.624 46.8728 60.624C46.5155 60.624 46.2115 60.7573 45.9608 61.024C45.7155 61.2853 45.5928 61.624 45.5928 62.04ZM53.2789 64.128C52.6443 64.128 52.1323 63.92 51.7429 63.504C51.3536 63.0933 51.1589 62.5493 51.1589 61.872V58.272H51.8949V61.904C51.8949 62.3733 52.0176 62.744 52.2629 63.016C52.5083 63.288 52.8469 63.424 53.2789 63.424C53.7109 63.424 54.0496 63.288 54.2949 63.016C54.5403 62.744 54.6629 62.3733 54.6629 61.904V58.272H55.3989V61.872C55.3989 62.5653 55.2069 63.1147 54.8229 63.52C54.4389 63.9253 53.9243 64.128 53.2789 64.128ZM58.2118 63.456C58.5638 63.456 58.8598 63.3227 59.0998 63.056C59.3398 62.7947 59.4598 62.456 59.4598 62.04C59.4598 61.6293 59.3398 61.2907 59.0998 61.024C58.8598 60.7573 58.5638 60.624 58.2118 60.624C57.8544 60.624 57.5558 60.7573 57.3158 61.024C57.0811 61.2907 56.9638 61.6293 56.9638 62.04C56.9638 62.456 57.0811 62.7973 57.3158 63.064C57.5558 63.3253 57.8544 63.456 58.2118 63.456ZM58.3318 64.128C58.0438 64.128 57.7798 64.0667 57.5398 63.944C57.3051 63.8213 57.1238 63.6587 56.9958 63.456H56.9638L56.9958 64V65.728H56.2598V60.08H56.9638V60.624H56.9958C57.1238 60.4213 57.3051 60.2587 57.5398 60.136C57.7798 60.0133 58.0438 59.952 58.3318 59.952C58.8491 59.952 59.2864 60.1547 59.6438 60.56C60.0118 60.9707 60.1958 61.464 60.1958 62.04C60.1958 62.6213 60.0118 63.1147 59.6438 63.52C59.2864 63.9253 58.8491 64.128 58.3318 64.128ZM61.5278 58.272V64H60.7918V58.272H61.5278ZM62.1615 62.04C62.1615 61.4373 62.3508 60.9387 62.7295 60.544C63.1135 60.1493 63.5962 59.952 64.1775 59.952C64.7588 59.952 65.2388 60.1493 65.6175 60.544C66.0015 60.9387 66.1935 61.4373 66.1935 62.04C66.1935 62.648 66.0015 63.1467 65.6175 63.536C65.2388 63.9307 64.7588 64.128 64.1775 64.128C63.5962 64.128 63.1135 63.9307 62.7295 63.536C62.3508 63.1413 62.1615 62.6427 62.1615 62.04ZM62.8975 62.04C62.8975 62.4613 63.0202 62.8027 63.2655 63.064C63.5108 63.3253 63.8148 63.456 64.1775 63.456C64.5402 63.456 64.8442 63.3253 65.0895 63.064C65.3348 62.8027 65.4575 62.4613 65.4575 62.04C65.4575 61.624 65.3348 61.2853 65.0895 61.024C64.8388 60.7573 64.5348 60.624 64.1775 60.624C63.8202 60.624 63.5162 60.7573 63.2655 61.024C63.0202 61.2853 62.8975 61.624 62.8975 62.04ZM67.3981 62.8C67.3981 62.992 67.4781 63.152 67.6381 63.28C67.8034 63.408 67.9954 63.472 68.2141 63.472C68.5234 63.472 68.7981 63.3573 69.0381 63.128C69.2834 62.8987 69.4061 62.6293 69.4061 62.32C69.1767 62.1387 68.8567 62.048 68.4461 62.048C68.1474 62.048 67.8967 62.12 67.6941 62.264C67.4967 62.408 67.3981 62.5867 67.3981 62.8ZM68.3501 59.952C68.8941 59.952 69.3234 60.0987 69.6381 60.392C69.9527 60.68 70.1101 61.0773 70.1101 61.584V64H69.4061V63.456H69.3741C69.0701 63.904 68.6647 64.128 68.1581 64.128C67.7261 64.128 67.3634 64 67.0701 63.744C66.7821 63.488 66.6381 63.168 66.6381 62.784C66.6381 62.3787 66.7901 62.056 67.0941 61.816C67.4034 61.576 67.8141 61.456 68.3261 61.456C68.7634 61.456 69.1234 61.536 69.4061 61.696V61.528C69.4061 61.272 69.3047 61.056 69.1021 60.88C68.8994 60.6987 68.6621 60.608 68.3901 60.608C67.9794 60.608 67.6541 60.7813 67.4141 61.128L66.7661 60.72C67.1234 60.208 67.6514 59.952 68.3501 59.952ZM72.6611 63.456C73.0238 63.456 73.3198 63.3253 73.5491 63.064C73.7891 62.8027 73.9091 62.4613 73.9091 62.04C73.9091 61.6293 73.7891 61.2907 73.5491 61.024C73.3145 60.7573 73.0185 60.624 72.6611 60.624C72.3091 60.624 72.0131 60.7573 71.7731 61.024C71.5331 61.2907 71.4131 61.6293 71.4131 62.04C71.4131 62.456 71.5331 62.7947 71.7731 63.056C72.0131 63.3227 72.3091 63.456 72.6611 63.456ZM72.5411 64.128C72.0291 64.128 71.5891 63.9253 71.2211 63.52C70.8585 63.1093 70.6771 62.616 70.6771 62.04C70.6771 61.464 70.8585 60.9707 71.2211 60.56C71.5891 60.1547 72.0291 59.952 72.5411 59.952C72.8291 59.952 73.0905 60.0133 73.3251 60.136C73.5651 60.2587 73.7491 60.4213 73.8771 60.624H73.9091L73.8771 60.08V58.272H74.6131V64H73.9091V63.456H73.8771C73.7491 63.6587 73.5651 63.8213 73.3251 63.944C73.0905 64.0667 72.8291 64.128 72.5411 64.128ZM24.8862 71.68V74H24.1502V68.272H26.1022C26.5982 68.272 27.0196 68.4373 27.3662 68.768C27.7182 69.0987 27.8942 69.5013 27.8942 69.976C27.8942 70.4613 27.7182 70.8667 27.3662 71.192C27.0249 71.5173 26.6036 71.68 26.1022 71.68H24.8862ZM24.8862 68.976V70.976H26.1182C26.4116 70.976 26.6542 70.8773 26.8462 70.68C27.0436 70.4827 27.1422 70.248 27.1422 69.976C27.1422 69.7093 27.0436 69.4773 26.8462 69.28C26.6542 69.0773 26.4116 68.976 26.1182 68.976H24.8862ZM29.2738 74H28.5378V70.08H29.2418V70.72H29.2738C29.3485 70.512 29.5005 70.336 29.7298 70.192C29.9645 70.0427 30.1938 69.968 30.4178 69.968C30.6312 69.968 30.8125 70 30.9618 70.064L30.7378 70.776C30.6472 70.7387 30.5032 70.72 30.3058 70.72C30.0285 70.72 29.7858 70.832 29.5778 71.056C29.3752 71.28 29.2738 71.5413 29.2738 71.84V74ZM30.9779 72.04C30.9779 71.4373 31.1672 70.9387 31.5459 70.544C31.9299 70.1493 32.4126 69.952 32.9939 69.952C33.5752 69.952 34.0552 70.1493 34.4339 70.544C34.8179 70.9387 35.0099 71.4373 35.0099 72.04C35.0099 72.648 34.8179 73.1467 34.4339 73.536C34.0552 73.9307 33.5752 74.128 32.9939 74.128C32.4126 74.128 31.9299 73.9307 31.5459 73.536C31.1672 73.1413 30.9779 72.6427 30.9779 72.04ZM31.7139 72.04C31.7139 72.4613 31.8366 72.8027 32.0819 73.064C32.3272 73.3253 32.6312 73.456 32.9939 73.456C33.3566 73.456 33.6606 73.3253 33.9059 73.064C34.1512 72.8027 34.2739 72.4613 34.2739 72.04C34.2739 71.624 34.1512 71.2853 33.9059 71.024C33.6552 70.7573 33.3512 70.624 32.9939 70.624C32.6366 70.624 32.3326 70.7573 32.0819 71.024C31.8366 71.2853 31.7139 71.624 31.7139 72.04ZM37.4385 73.456C37.8011 73.456 38.0971 73.3253 38.3265 73.064C38.5665 72.8027 38.6865 72.4613 38.6865 72.04C38.6865 71.6293 38.5665 71.2907 38.3265 71.024C38.0918 70.7573 37.7958 70.624 37.4385 70.624C37.0865 70.624 36.7905 70.7573 36.5505 71.024C36.3105 71.2907 36.1905 71.6293 36.1905 72.04C36.1905 72.456 36.3105 72.7947 36.5505 73.056C36.7905 73.3227 37.0865 73.456 37.4385 73.456ZM37.3185 74.128C36.8065 74.128 36.3665 73.9253 35.9985 73.52C35.6358 73.1093 35.4545 72.616 35.4545 72.04C35.4545 71.464 35.6358 70.9707 35.9985 70.56C36.3665 70.1547 36.8065 69.952 37.3185 69.952C37.6065 69.952 37.8678 70.0133 38.1025 70.136C38.3425 70.2587 38.5265 70.4213 38.6545 70.624H38.6865L38.6545 70.08V68.272H39.3905V74H38.6865V73.456H38.6545C38.5265 73.6587 38.3425 73.8213 38.1025 73.944C37.8678 74.0667 37.6065 74.128 37.3185 74.128ZM43.7278 74H43.0238V73.456H42.9918C42.8798 73.648 42.7065 73.808 42.4718 73.936C42.2425 74.064 42.0025 74.128 41.7518 74.128C41.2718 74.128 40.9012 73.992 40.6398 73.72C40.3838 73.4427 40.2558 73.0507 40.2558 72.544V70.08H40.9918V72.496C41.0078 73.136 41.3305 73.456 41.9598 73.456C42.2532 73.456 42.4985 73.3387 42.6958 73.104C42.8932 72.864 42.9918 72.5787 42.9918 72.248V70.08H43.7278V74ZM46.3767 74.128C45.7954 74.128 45.3127 73.9307 44.9287 73.536C44.5501 73.1307 44.3607 72.632 44.3607 72.04C44.3607 71.4373 44.5501 70.9387 44.9287 70.544C45.3127 70.1493 45.7954 69.952 46.3767 69.952C46.7767 69.952 47.1261 70.0533 47.4247 70.256C47.7234 70.4533 47.9474 70.728 48.0967 71.08L47.4247 71.36C47.2167 70.8693 46.8514 70.624 46.3287 70.624C45.9927 70.624 45.7021 70.76 45.4567 71.032C45.2167 71.304 45.0967 71.64 45.0967 72.04C45.0967 72.44 45.2167 72.776 45.4567 73.048C45.7021 73.32 45.9927 73.456 46.3287 73.456C46.8674 73.456 47.2461 73.2107 47.4647 72.72L48.1207 73C47.9767 73.352 47.7501 73.6293 47.4407 73.832C47.1367 74.0293 46.7821 74.128 46.3767 74.128ZM50.2773 74.064C49.9573 74.064 49.6907 73.9653 49.4773 73.768C49.2693 73.5707 49.1627 73.296 49.1573 72.944V70.752H48.4693V70.08H49.1573V68.88H49.8933V70.08H50.8533V70.752H49.8933V72.704C49.8933 72.9653 49.944 73.144 50.0453 73.24C50.1467 73.3307 50.2613 73.376 50.3893 73.376C50.448 73.376 50.504 73.3707 50.5573 73.36C50.616 73.344 50.6693 73.3253 50.7173 73.304L50.9493 73.96C50.7573 74.0293 50.5333 74.064 50.2773 74.064ZM54.1753 74H53.4393V68.272H54.1753V74ZM55.9379 74H55.2019V70.08H55.9059V70.624H55.9379C56.0499 70.432 56.2206 70.272 56.4499 70.144C56.6846 70.016 56.9166 69.952 57.1459 69.952C57.4339 69.952 57.6872 70.0187 57.9059 70.152C58.1246 70.2853 58.2846 70.4693 58.3859 70.704C58.7112 70.2027 59.1619 69.952 59.7379 69.952C60.1912 69.952 60.5406 70.0907 60.7859 70.368C61.0312 70.6453 61.1539 71.04 61.1539 71.552V74H60.4179V71.664C60.4179 71.296 60.3512 71.032 60.2179 70.872C60.0846 70.7067 59.8606 70.624 59.5459 70.624C59.2632 70.624 59.0259 70.744 58.8339 70.984C58.6419 71.224 58.5459 71.5067 58.5459 71.832V74H57.8099V71.664C57.8099 71.296 57.7432 71.032 57.6099 70.872C57.4766 70.7067 57.2526 70.624 56.9379 70.624C56.6552 70.624 56.4179 70.744 56.2259 70.984C56.0339 71.224 55.9379 71.5067 55.9379 71.832V74ZM62.5113 72.8C62.5113 72.992 62.5913 73.152 62.7513 73.28C62.9167 73.408 63.1087 73.472 63.3273 73.472C63.6367 73.472 63.9113 73.3573 64.1513 73.128C64.3967 72.8987 64.5193 72.6293 64.5193 72.32C64.29 72.1387 63.97 72.048 63.5593 72.048C63.2607 72.048 63.01 72.12 62.8073 72.264C62.61 72.408 62.5113 72.5867 62.5113 72.8ZM63.4633 69.952C64.0073 69.952 64.4367 70.0987 64.7513 70.392C65.066 70.68 65.2233 71.0773 65.2233 71.584V74H64.5193V73.456H64.4873C64.1833 73.904 63.778 74.128 63.2713 74.128C62.8393 74.128 62.4767 74 62.1833 73.744C61.8953 73.488 61.7513 73.168 61.7513 72.784C61.7513 72.3787 61.9033 72.056 62.2073 71.816C62.5167 71.576 62.9273 71.456 63.4393 71.456C63.8767 71.456 64.2367 71.536 64.5193 71.696V71.528C64.5193 71.272 64.418 71.056 64.2153 70.88C64.0127 70.6987 63.7753 70.608 63.5033 70.608C63.0927 70.608 62.7673 70.7813 62.5273 71.128L61.8793 70.72C62.2367 70.208 62.7647 69.952 63.4633 69.952ZM67.7744 73.456C68.1371 73.456 68.4331 73.3253 68.6624 73.064C68.9024 72.8027 69.0224 72.4613 69.0224 72.04C69.0224 71.6293 68.9024 71.2907 68.6624 71.024C68.4277 70.7573 68.1317 70.624 67.7744 70.624C67.4224 70.624 67.1264 70.7573 66.8864 71.024C66.6464 71.2907 66.5264 71.6293 66.5264 72.04C66.5264 72.456 66.6464 72.7947 66.8864 73.056C67.1264 73.3227 67.4224 73.456 67.7744 73.456ZM67.7504 75.856C67.5317 75.856 67.3264 75.8267 67.1344 75.768C66.9424 75.7147 66.7664 75.6373 66.6064 75.536C66.4517 75.4347 66.3184 75.3147 66.2064 75.176C66.0944 75.0373 66.0091 74.8827 65.9504 74.712L66.6464 74.424C66.7264 74.6533 66.8651 74.8373 67.0624 74.976C67.2597 75.1147 67.4891 75.184 67.7504 75.184C68.1504 75.184 68.4624 75.064 68.6864 74.824C68.9104 74.584 69.0224 74.2533 69.0224 73.832V73.456H68.9904C68.8517 73.664 68.6624 73.8293 68.4224 73.952C68.1877 74.0693 67.9317 74.128 67.6544 74.128C67.1424 74.128 66.7024 73.928 66.3344 73.528C65.9717 73.1173 65.7904 72.6213 65.7904 72.04C65.7904 71.4587 65.9717 70.9653 66.3344 70.56C66.7024 70.1547 67.1424 69.952 67.6544 69.952C67.9317 69.952 68.1877 70.0133 68.4224 70.136C68.6624 70.2533 68.8517 70.416 68.9904 70.624H69.0224V70.08H69.7264V73.832C69.7264 74.4613 69.5477 74.9547 69.1904 75.312C68.8277 75.6747 68.3477 75.856 67.7504 75.856ZM72.3447 74.128C71.7687 74.128 71.2941 73.9307 70.9207 73.536C70.5474 73.1413 70.3607 72.6427 70.3607 72.04C70.3607 71.4427 70.5421 70.9467 70.9047 70.552C71.2674 70.152 71.7314 69.952 72.2967 69.952C72.8781 69.952 73.3394 70.1413 73.6807 70.52C74.0274 70.8933 74.2007 71.4187 74.2007 72.096L74.1927 72.176H71.1127C71.1234 72.56 71.2514 72.8693 71.4967 73.104C71.7421 73.3387 72.0354 73.456 72.3767 73.456C72.8461 73.456 73.2141 73.2213 73.4807 72.752L74.1367 73.072C73.9607 73.4027 73.7154 73.6613 73.4007 73.848C73.0914 74.0347 72.7394 74.128 72.3447 74.128ZM71.1687 71.568H73.4167C73.3954 71.296 73.2834 71.072 73.0807 70.896C72.8834 70.7147 72.6167 70.624 72.2807 70.624C72.0034 70.624 71.7634 70.7093 71.5607 70.88C71.3634 71.0507 71.2327 71.28 71.1687 71.568Z" fill="#7A8A98"/>
</svg>
