<svg width="98" height="98" viewBox="0 0 98 98" fill="none" xmlns="http://www.w3.org/2000/svg">
<rect width="98" height="98" rx="49" fill="#E2E6E9"/>
<path fill-rule="evenodd" clip-rule="evenodd" d="M48.4255 24H48.5745C50.7504 24 52.4852 24 53.8453 24.1828C55.2497 24.3716 56.4035 24.7718 57.3159 25.6841C58.2283 26.5965 58.6284 27.7503 58.8172 29.1547C59 30.5149 59 32.2496 59 34.4256V34.5744C59 36.7504 59 38.4851 58.8172 39.8453C58.6284 41.2497 58.2283 42.4035 57.3159 43.3159C56.4035 44.2283 55.2497 44.6284 53.8453 44.8172C52.4851 45 50.7504 45 48.5744 45H48.4256C46.2496 45 44.5149 45 43.1547 44.8172C41.7503 44.6284 40.5965 44.2283 39.6841 43.3159C38.7718 42.4035 38.3716 41.2497 38.1828 39.8453C38 38.4852 38 36.7504 38 34.5745V34.4255C38 32.2496 38 30.5149 38.1828 29.1547C38.3716 27.7503 38.7718 26.5965 39.6841 25.6841C40.5965 24.7718 41.7503 24.3716 43.1547 24.1828C44.5149 24 46.2496 24 48.4255 24ZM43.4212 26.165C42.2386 26.324 41.5772 26.6195 41.0984 27.0984C40.6195 27.5772 40.324 28.2386 40.165 29.4212C40.0021 30.6326 40 32.2326 40 34.5C40 36.7674 40.0021 38.3674 40.165 39.5788C40.324 40.7614 40.6195 41.4228 41.0984 41.9017C41.5772 42.3805 42.2386 42.676 43.4212 42.835C44.6326 42.9979 46.2326 43 48.5 43C50.7674 43 52.3674 42.9979 53.5788 42.835C54.7614 42.676 55.4228 42.3805 55.9017 41.9017C56.3805 41.4228 56.676 40.7614 56.835 39.5788C56.9979 38.3674 57 36.7674 57 34.5C57 32.2326 56.9979 30.6326 56.835 29.4212C56.676 28.2386 56.3805 27.5772 55.9017 27.0984C55.4228 26.6195 54.7614 26.324 53.5788 26.165C52.3674 26.0021 50.7674 26 48.5 26C46.2326 26 44.6326 26.0021 43.4212 26.165Z" fill="#7A8A98"/>
<path d="M55 30C55 31.1046 54.1046 32 53 32C51.8954 32 51 31.1046 51 30C51 28.8954 51.8954 28 53 28C54.1046 28 55 28.8954 55 30Z" fill="#7A8A98"/>
<path fill-rule="evenodd" clip-rule="evenodd" d="M40.8647 35.2527C43.6778 35.1952 46.4275 36.072 48.624 37.7364C50.6525 39.2734 52.0902 41.3925 52.7153 43.7708C52.7731 43.9907 52.728 44.2249 52.5927 44.4077C52.4574 44.5904 52.2465 44.7019 52.0193 44.7108C51.0208 44.75 49.8581 44.75 48.5126 44.75H48.4428C46.2521 44.75 44.5314 44.75 43.188 44.5694C41.8114 44.3843 40.7191 43.9973 39.8609 43.1391C39.1151 42.3932 38.7217 41.4783 38.5099 40.3428C38.3024 39.2309 38.2597 37.8523 38.25 36.1397C38.2479 35.7655 38.5219 35.447 38.8922 35.3932C39.5447 35.2985 40.2042 35.2514 40.8647 35.2527ZM51.5687 38.4582C51.3393 38.1904 51.4291 37.77 51.7648 37.6622C52.622 37.387 53.4998 37.2468 54.3878 37.2501C55.7039 37.249 57.0027 37.5669 58.246 38.1805C58.5202 38.3158 58.6848 38.6039 58.6621 38.9088C58.5267 40.7226 58.1763 42.1024 57.1396 43.1391C56.3573 43.9214 55.3806 44.3122 54.1712 44.5154C54.264 44.1502 54.2647 43.7629 54.1666 43.3894C53.688 41.5687 52.7945 39.8893 51.5687 38.4582Z" fill="#7A8A98"/>
<path d="M26.2095 64.128C25.3615 64.128 24.6522 63.8427 24.0815 63.272C23.5162 62.7013 23.2335 61.9893 23.2335 61.136C23.2335 60.2827 23.5162 59.5733 24.0815 59.008C24.6468 58.432 25.3562 58.144 26.2095 58.144C27.0735 58.144 27.7748 58.456 28.3135 59.08L27.7855 59.592C27.3748 59.096 26.8495 58.848 26.2095 58.848C25.5748 58.848 25.0442 59.0613 24.6175 59.488C24.1962 59.9093 23.9855 60.4587 23.9855 61.136C23.9855 61.8133 24.1962 62.3627 24.6175 62.784C25.0442 63.2107 25.5748 63.424 26.2095 63.424C26.8762 63.424 27.4548 63.144 27.9455 62.584L28.4815 63.104C28.2095 63.4293 27.8762 63.6827 27.4815 63.864C27.0868 64.04 26.6628 64.128 26.2095 64.128ZM29.8715 58.272V64H29.1355V58.272H29.8715ZM31.7203 58.728C31.7203 58.872 31.6696 58.9947 31.5683 59.096C31.467 59.1973 31.3443 59.248 31.2003 59.248C31.0563 59.248 30.9336 59.1973 30.8323 59.096C30.731 58.9947 30.6803 58.872 30.6803 58.728C30.6803 58.584 30.731 58.4613 30.8323 58.36C30.9336 58.2587 31.0563 58.208 31.2003 58.208C31.3443 58.208 31.467 58.2587 31.5683 58.36C31.6696 58.4613 31.7203 58.584 31.7203 58.728ZM31.5683 60.08V64H30.8323V60.08H31.5683ZM34.2791 64.128C33.6977 64.128 33.2151 63.9307 32.8311 63.536C32.4524 63.1307 32.2631 62.632 32.2631 62.04C32.2631 61.4373 32.4524 60.9387 32.8311 60.544C33.2151 60.1493 33.6977 59.952 34.2791 59.952C34.6791 59.952 35.0284 60.0533 35.3271 60.256C35.6257 60.4533 35.8497 60.728 35.9991 61.08L35.3271 61.36C35.1191 60.8693 34.7537 60.624 34.2311 60.624C33.8951 60.624 33.6044 60.76 33.3591 61.032C33.1191 61.304 32.9991 61.64 32.9991 62.04C32.9991 62.44 33.1191 62.776 33.3591 63.048C33.6044 63.32 33.8951 63.456 34.2311 63.456C34.7697 63.456 35.1484 63.2107 35.3671 62.72L36.0231 63C35.8791 63.352 35.6524 63.6293 35.3431 63.832C35.0391 64.0293 34.6844 64.128 34.2791 64.128ZM40.1148 64H39.2268L38.0028 62.152L37.4028 62.744V64H36.6668V58.272H37.4028V61.8L39.0988 60.08H40.0428V60.112L38.5148 61.632L40.1148 63.968V64ZM43.8438 64.064C43.5238 64.064 43.2571 63.9653 43.0438 63.768C42.8358 63.5707 42.7291 63.296 42.7238 62.944V60.752H42.0358V60.08H42.7238V58.88H43.4598V60.08H44.4198V60.752H43.4598V62.704C43.4598 62.9653 43.5104 63.144 43.6118 63.24C43.7131 63.3307 43.8278 63.376 43.9557 63.376C44.0144 63.376 44.0704 63.3707 44.1238 63.36C44.1824 63.344 44.2358 63.3253 44.2838 63.304L44.5158 63.96C44.3238 64.0293 44.0998 64.064 43.8438 64.064ZM44.8568 62.04C44.8568 61.4373 45.0461 60.9387 45.4248 60.544C45.8088 60.1493 46.2915 59.952 46.8728 59.952C47.4541 59.952 47.9341 60.1493 48.3128 60.544C48.6968 60.9387 48.8888 61.4373 48.8888 62.04C48.8888 62.648 48.6968 63.1467 48.3128 63.536C47.9341 63.9307 47.4541 64.128 46.8728 64.128C46.2915 64.128 45.8088 63.9307 45.4248 63.536C45.0461 63.1413 44.8568 62.6427 44.8568 62.04ZM45.5928 62.04C45.5928 62.4613 45.7155 62.8027 45.9608 63.064C46.2061 63.3253 46.5101 63.456 46.8728 63.456C47.2355 63.456 47.5395 63.3253 47.7848 63.064C48.0301 62.8027 48.1528 62.4613 48.1528 62.04C48.1528 61.624 48.0301 61.2853 47.7848 61.024C47.5341 60.7573 47.2301 60.624 46.8728 60.624C46.5155 60.624 46.2115 60.7573 45.9608 61.024C45.7155 61.2853 45.5928 61.624 45.5928 62.04ZM53.2789 64.128C52.6443 64.128 52.1323 63.92 51.7429 63.504C51.3536 63.0933 51.1589 62.5493 51.1589 61.872V58.272H51.8949V61.904C51.8949 62.3733 52.0176 62.744 52.2629 63.016C52.5083 63.288 52.8469 63.424 53.2789 63.424C53.7109 63.424 54.0496 63.288 54.2949 63.016C54.5403 62.744 54.6629 62.3733 54.6629 61.904V58.272H55.3989V61.872C55.3989 62.5653 55.2069 63.1147 54.8229 63.52C54.4389 63.9253 53.9243 64.128 53.2789 64.128ZM58.2118 63.456C58.5638 63.456 58.8598 63.3227 59.0998 63.056C59.3398 62.7947 59.4598 62.456 59.4598 62.04C59.4598 61.6293 59.3398 61.2907 59.0998 61.024C58.8598 60.7573 58.5638 60.624 58.2118 60.624C57.8544 60.624 57.5558 60.7573 57.3158 61.024C57.0811 61.2907 56.9638 61.6293 56.9638 62.04C56.9638 62.456 57.0811 62.7973 57.3158 63.064C57.5558 63.3253 57.8544 63.456 58.2118 63.456ZM58.3318 64.128C58.0438 64.128 57.7798 64.0667 57.5398 63.944C57.3051 63.8213 57.1238 63.6587 56.9958 63.456H56.9638L56.9958 64V65.728H56.2598V60.08H56.9638V60.624H56.9958C57.1238 60.4213 57.3051 60.2587 57.5398 60.136C57.7798 60.0133 58.0438 59.952 58.3318 59.952C58.8491 59.952 59.2864 60.1547 59.6438 60.56C60.0118 60.9707 60.1958 61.464 60.1958 62.04C60.1958 62.6213 60.0118 63.1147 59.6438 63.52C59.2864 63.9253 58.8491 64.128 58.3318 64.128ZM61.5278 58.272V64H60.7918V58.272H61.5278ZM62.1615 62.04C62.1615 61.4373 62.3508 60.9387 62.7295 60.544C63.1135 60.1493 63.5962 59.952 64.1775 59.952C64.7588 59.952 65.2388 60.1493 65.6175 60.544C66.0015 60.9387 66.1935 61.4373 66.1935 62.04C66.1935 62.648 66.0015 63.1467 65.6175 63.536C65.2388 63.9307 64.7588 64.128 64.1775 64.128C63.5962 64.128 63.1135 63.9307 62.7295 63.536C62.3508 63.1413 62.1615 62.6427 62.1615 62.04ZM62.8975 62.04C62.8975 62.4613 63.0202 62.8027 63.2655 63.064C63.5108 63.3253 63.8148 63.456 64.1775 63.456C64.5402 63.456 64.8442 63.3253 65.0895 63.064C65.3348 62.8027 65.4575 62.4613 65.4575 62.04C65.4575 61.624 65.3348 61.2853 65.0895 61.024C64.8388 60.7573 64.5348 60.624 64.1775 60.624C63.8202 60.624 63.5162 60.7573 63.2655 61.024C63.0202 61.2853 62.8975 61.624 62.8975 62.04ZM67.3981 62.8C67.3981 62.992 67.4781 63.152 67.6381 63.28C67.8034 63.408 67.9954 63.472 68.2141 63.472C68.5234 63.472 68.7981 63.3573 69.0381 63.128C69.2834 62.8987 69.4061 62.6293 69.4061 62.32C69.1767 62.1387 68.8567 62.048 68.4461 62.048C68.1474 62.048 67.8967 62.12 67.6941 62.264C67.4967 62.408 67.3981 62.5867 67.3981 62.8ZM68.3501 59.952C68.8941 59.952 69.3234 60.0987 69.6381 60.392C69.9527 60.68 70.1101 61.0773 70.1101 61.584V64H69.4061V63.456H69.3741C69.0701 63.904 68.6647 64.128 68.1581 64.128C67.7261 64.128 67.3634 64 67.0701 63.744C66.7821 63.488 66.6381 63.168 66.6381 62.784C66.6381 62.3787 66.7901 62.056 67.0941 61.816C67.4034 61.576 67.8141 61.456 68.3261 61.456C68.7634 61.456 69.1234 61.536 69.4061 61.696V61.528C69.4061 61.272 69.3047 61.056 69.1021 60.88C68.8994 60.6987 68.6621 60.608 68.3901 60.608C67.9794 60.608 67.6541 60.7813 67.4141 61.128L66.7661 60.72C67.1234 60.208 67.6514 59.952 68.3501 59.952ZM72.6611 63.456C73.0238 63.456 73.3198 63.3253 73.5491 63.064C73.7891 62.8027 73.9091 62.4613 73.9091 62.04C73.9091 61.6293 73.7891 61.2907 73.5491 61.024C73.3145 60.7573 73.0185 60.624 72.6611 60.624C72.3091 60.624 72.0131 60.7573 71.7731 61.024C71.5331 61.2907 71.4131 61.6293 71.4131 62.04C71.4131 62.456 71.5331 62.7947 71.7731 63.056C72.0131 63.3227 72.3091 63.456 72.6611 63.456ZM72.5411 64.128C72.0291 64.128 71.5891 63.9253 71.2211 63.52C70.8585 63.1093 70.6771 62.616 70.6771 62.04C70.6771 61.464 70.8585 60.9707 71.2211 60.56C71.5891 60.1547 72.0291 59.952 72.5411 59.952C72.8291 59.952 73.0905 60.0133 73.3251 60.136C73.5651 60.2587 73.7491 60.4213 73.8771 60.624H73.9091L73.8771 60.08V58.272H74.6131V64H73.9091V63.456H73.8771C73.7491 63.6587 73.5651 63.8213 73.3251 63.944C73.0905 64.0667 72.8291 64.128 72.5411 64.128ZM27.6417 74H26.8737L24.8577 68.272H25.6737L27.2417 72.92H27.2737L28.9057 68.272H29.7217L27.6417 74ZM31.626 74.128C31.05 74.128 30.5753 73.9307 30.202 73.536C29.8286 73.1413 29.642 72.6427 29.642 72.04C29.642 71.4427 29.8233 70.9467 30.186 70.552C30.5486 70.152 31.0126 69.952 31.578 69.952C32.1593 69.952 32.6206 70.1413 32.962 70.52C33.3086 70.8933 33.482 71.4187 33.482 72.096L33.474 72.176H30.394C30.4046 72.56 30.5326 72.8693 30.778 73.104C31.0233 73.3387 31.3166 73.456 31.658 73.456C32.1273 73.456 32.4953 73.2213 32.762 72.752L33.418 73.072C33.242 73.4027 32.9966 73.6613 32.682 73.848C32.3726 74.0347 32.0206 74.128 31.626 74.128ZM30.45 71.568H32.698C32.6766 71.296 32.5646 71.072 32.362 70.896C32.1646 70.7147 31.898 70.624 31.562 70.624C31.2846 70.624 31.0446 70.7093 30.842 70.88C30.6446 71.0507 30.514 71.28 30.45 71.568ZM34.155 70.08H34.859V70.624H34.891C35.003 70.432 35.1737 70.272 35.403 70.144C35.6377 70.016 35.8804 69.952 36.131 69.952C36.611 69.952 36.979 70.0907 37.235 70.368C37.4964 70.64 37.627 71.0293 37.627 71.536V74H36.891V71.584C36.875 70.944 36.5524 70.624 35.923 70.624C35.6297 70.624 35.3844 70.744 35.187 70.984C34.9897 71.2187 34.891 71.5013 34.891 71.832V74H34.155V70.08ZM40.251 73.456C40.6136 73.456 40.9096 73.3253 41.139 73.064C41.379 72.8027 41.499 72.4613 41.499 72.04C41.499 71.6293 41.379 71.2907 41.139 71.024C40.9043 70.7573 40.6083 70.624 40.251 70.624C39.899 70.624 39.603 70.7573 39.363 71.024C39.123 71.2907 39.003 71.6293 39.003 72.04C39.003 72.456 39.123 72.7947 39.363 73.056C39.603 73.3227 39.899 73.456 40.251 73.456ZM40.131 74.128C39.619 74.128 39.179 73.9253 38.811 73.52C38.4483 73.1093 38.267 72.616 38.267 72.04C38.267 71.464 38.4483 70.9707 38.811 70.56C39.179 70.1547 39.619 69.952 40.131 69.952C40.419 69.952 40.6803 70.0133 40.915 70.136C41.155 70.2587 41.339 70.4213 41.467 70.624H41.499L41.467 70.08V68.272H42.203V74H41.499V73.456H41.467C41.339 73.6587 41.155 73.8213 40.915 73.944C40.6803 74.0667 40.419 74.128 40.131 74.128ZM42.8373 72.04C42.8373 71.4373 43.0266 70.9387 43.4053 70.544C43.7893 70.1493 44.2719 69.952 44.8533 69.952C45.4346 69.952 45.9146 70.1493 46.2933 70.544C46.6773 70.9387 46.8693 71.4373 46.8693 72.04C46.8693 72.648 46.6773 73.1467 46.2933 73.536C45.9146 73.9307 45.4346 74.128 44.8533 74.128C44.2719 74.128 43.7893 73.9307 43.4053 73.536C43.0266 73.1413 42.8373 72.6427 42.8373 72.04ZM43.5733 72.04C43.5733 72.4613 43.6959 72.8027 43.9413 73.064C44.1866 73.3253 44.4906 73.456 44.8533 73.456C45.2159 73.456 45.5199 73.3253 45.7653 73.064C46.0106 72.8027 46.1333 72.4613 46.1333 72.04C46.1333 71.624 46.0106 71.2853 45.7653 71.024C45.5146 70.7573 45.2106 70.624 44.8533 70.624C44.4959 70.624 44.1919 70.7573 43.9413 71.024C43.6959 71.2853 43.5733 71.624 43.5733 72.04ZM48.1957 74H47.4597V70.08H48.1637V70.72H48.1957C48.2704 70.512 48.4224 70.336 48.6517 70.192C48.8864 70.0427 49.1157 69.968 49.3397 69.968C49.5531 69.968 49.7344 70 49.8837 70.064L49.6597 70.776C49.5691 70.7387 49.4251 70.72 49.2277 70.72C48.9504 70.72 48.7077 70.832 48.4997 71.056C48.2971 71.28 48.1957 71.5413 48.1957 71.84V74ZM52.9878 74H52.2518V68.272H52.9878V74ZM54.7504 74H54.0144V70.08H54.7184V70.624H54.7504C54.8624 70.432 55.0331 70.272 55.2624 70.144C55.4971 70.016 55.7291 69.952 55.9584 69.952C56.2464 69.952 56.4997 70.0187 56.7184 70.152C56.9371 70.2853 57.0971 70.4693 57.1984 70.704C57.5237 70.2027 57.9744 69.952 58.5504 69.952C59.0037 69.952 59.3531 70.0907 59.5984 70.368C59.8437 70.6453 59.9664 71.04 59.9664 71.552V74H59.2304V71.664C59.2304 71.296 59.1637 71.032 59.0304 70.872C58.8971 70.7067 58.6731 70.624 58.3584 70.624C58.0757 70.624 57.8384 70.744 57.6464 70.984C57.4544 71.224 57.3584 71.5067 57.3584 71.832V74H56.6224V71.664C56.6224 71.296 56.5557 71.032 56.4224 70.872C56.2891 70.7067 56.0651 70.624 55.7504 70.624C55.4677 70.624 55.2304 70.744 55.0384 70.984C54.8464 71.224 54.7504 71.5067 54.7504 71.832V74ZM61.3238 72.8C61.3238 72.992 61.4038 73.152 61.5638 73.28C61.7292 73.408 61.9212 73.472 62.1398 73.472C62.4492 73.472 62.7238 73.3573 62.9638 73.128C63.2092 72.8987 63.3318 72.6293 63.3318 72.32C63.1025 72.1387 62.7825 72.048 62.3718 72.048C62.0732 72.048 61.8225 72.12 61.6198 72.264C61.4225 72.408 61.3238 72.5867 61.3238 72.8ZM62.2758 69.952C62.8198 69.952 63.2492 70.0987 63.5638 70.392C63.8785 70.68 64.0358 71.0773 64.0358 71.584V74H63.3318V73.456H63.2998C62.9958 73.904 62.5905 74.128 62.0838 74.128C61.6518 74.128 61.2892 74 60.9958 73.744C60.7078 73.488 60.5638 73.168 60.5638 72.784C60.5638 72.3787 60.7158 72.056 61.0198 71.816C61.3292 71.576 61.7398 71.456 62.2518 71.456C62.6892 71.456 63.0492 71.536 63.3318 71.696V71.528C63.3318 71.272 63.2305 71.056 63.0278 70.88C62.8252 70.6987 62.5878 70.608 62.3158 70.608C61.9052 70.608 61.5798 70.7813 61.3398 71.128L60.6918 70.72C61.0492 70.208 61.5772 69.952 62.2758 69.952ZM66.5869 73.456C66.9496 73.456 67.2456 73.3253 67.4749 73.064C67.7149 72.8027 67.8349 72.4613 67.8349 72.04C67.8349 71.6293 67.7149 71.2907 67.4749 71.024C67.2402 70.7573 66.9442 70.624 66.5869 70.624C66.2349 70.624 65.9389 70.7573 65.6989 71.024C65.4589 71.2907 65.3389 71.6293 65.3389 72.04C65.3389 72.456 65.4589 72.7947 65.6989 73.056C65.9389 73.3227 66.2349 73.456 66.5869 73.456ZM66.5629 75.856C66.3442 75.856 66.1389 75.8267 65.9469 75.768C65.7549 75.7147 65.5789 75.6373 65.4189 75.536C65.2642 75.4347 65.1309 75.3147 65.0189 75.176C64.9069 75.0373 64.8216 74.8827 64.7629 74.712L65.4589 74.424C65.5389 74.6533 65.6776 74.8373 65.8749 74.976C66.0722 75.1147 66.3016 75.184 66.5629 75.184C66.9629 75.184 67.2749 75.064 67.4989 74.824C67.7229 74.584 67.8349 74.2533 67.8349 73.832V73.456H67.8029C67.6642 73.664 67.4749 73.8293 67.2349 73.952C67.0002 74.0693 66.7442 74.128 66.4669 74.128C65.9549 74.128 65.5149 73.928 65.1469 73.528C64.7842 73.1173 64.6029 72.6213 64.6029 72.04C64.6029 71.4587 64.7842 70.9653 65.1469 70.56C65.5149 70.1547 65.9549 69.952 66.4669 69.952C66.7442 69.952 67.0002 70.0133 67.2349 70.136C67.4749 70.2533 67.6642 70.416 67.8029 70.624H67.8349V70.08H68.5389V73.832C68.5389 74.4613 68.3602 74.9547 68.0029 75.312C67.6402 75.6747 67.1602 75.856 66.5629 75.856ZM71.1572 74.128C70.5812 74.128 70.1066 73.9307 69.7332 73.536C69.3599 73.1413 69.1732 72.6427 69.1732 72.04C69.1732 71.4427 69.3546 70.9467 69.7172 70.552C70.0799 70.152 70.5439 69.952 71.1092 69.952C71.6906 69.952 72.1519 70.1413 72.4932 70.52C72.8399 70.8933 73.0132 71.4187 73.0132 72.096L73.0052 72.176H69.9252C69.9359 72.56 70.0639 72.8693 70.3092 73.104C70.5546 73.3387 70.8479 73.456 71.1892 73.456C71.6586 73.456 72.0266 73.2213 72.2932 72.752L72.9492 73.072C72.7732 73.4027 72.5279 73.6613 72.2132 73.848C71.9039 74.0347 71.5519 74.128 71.1572 74.128ZM69.9812 71.568H72.2292C72.2079 71.296 72.0959 71.072 71.8932 70.896C71.6959 70.7147 71.4292 70.624 71.0932 70.624C70.8159 70.624 70.5759 70.7093 70.3732 70.88C70.1759 71.0507 70.0452 71.28 69.9812 71.568Z" fill="#7A8A98"/>
</svg>
