<svg width="24" height="24" viewBox="0 0 24 24" fill="none" xmlns="http://www.w3.org/2000/svg">
<path d="M7.75 7.5C7.75 5.15279 9.65279 3.25 12 3.25C14.3472 3.25 16.25 5.15279 16.25 7.5C16.25 9.84721 14.3472 11.75 12 11.75C9.65279 11.75 7.75 9.84721 7.75 7.5Z" fill="#B3B3B3"/>
<path d="M4.25 20C4.25 16.1678 7.83242 13.25 12 13.25C16.1676 13.25 19.75 16.1678 19.75 20V20.75H4.25V20Z" fill="#B3B3B3"/>
<path d="M7.23115 4.75809C6.76607 5.56524 6.50002 6.50155 6.50002 7.5C6.50002 8.89211 7.01722 10.1634 7.86996 11.1323C7.59308 11.209 7.30135 11.25 7.00004 11.25C5.20513 11.25 3.75 9.79494 3.75 8C3.75 6.20506 5.20513 4.75 7.00004 4.75C7.07774 4.75 7.15481 4.75273 7.23115 4.75809Z" fill="#B3B3B3"/>
<path d="M8.786 12.5328C5.91139 13.5128 3.61372 15.7763 3.10517 18.75H1.25V18C1.25 14.8244 3.82436 12.25 7 12.25C7.62349 12.25 8.2238 12.3492 8.786 12.5328Z" fill="#B3B3B3"/>
<path d="M20.8947 18.75H22.7499V18C22.7499 14.8244 20.1755 12.25 16.9999 12.25C16.3764 12.25 15.7761 12.3492 15.2139 12.5328C18.0885 13.5128 20.3861 15.7763 20.8947 18.75Z" fill="#B3B3B3"/>
<path d="M16.1299 11.1323C16.4068 11.209 16.6986 11.25 16.9999 11.25C18.7948 11.25 20.2499 9.79493 20.2499 8C20.2499 6.20507 18.7948 4.75 16.9999 4.75C16.9222 4.75 16.8451 4.75273 16.7687 4.75809C17.2338 5.56524 17.4999 6.50155 17.4999 7.5C17.4999 8.89211 16.9827 10.1634 16.1299 11.1323Z" fill="#B3B3B3"/>
</svg>
