<svg width="24" height="24" viewBox="0 0 24 24" fill="none" xmlns="http://www.w3.org/2000/svg">
<path fill-rule="evenodd" clip-rule="evenodd" d="M2.25 6.50028V17.1615C2.25 18.2819 3.06734 19.0271 4.07333 19.6307C5.09172 20.2418 6.80103 20.9639 8.69413 21.7636C10.1132 22.3635 11.028 22.7502 12 22.7502C12.972 22.7502 13.8868 22.3635 15.3058 21.7636C17.1988 20.9639 18.9083 20.2418 19.9267 19.6307C20.9327 19.0271 21.75 18.2819 21.75 17.1615V6.50028C21.75 6.30994 21.6791 6.13616 21.5623 6.00391L18.2686 7.60302L15.3474 9.01655C13.4796 9.92038 12.7576 10.2502 12 10.2502C11.2424 10.2502 10.5204 9.92038 8.6526 9.01655L5.7314 7.60301L2.43775 6.00391C2.32091 6.13616 2.25 6.30994 2.25 6.50028ZM6.33557 11.3293C5.96509 11.1441 5.51459 11.2942 5.32934 11.6647C5.1441 12.0352 5.29427 12.4857 5.66475 12.6709L7.66475 13.6709C8.03524 13.8562 8.48574 13.706 8.67098 13.3355C8.85623 12.9651 8.70606 12.5145 8.33557 12.3293L6.33557 11.3293Z" fill="#B3B3B3"/>
<path fill-rule="evenodd" clip-rule="evenodd" d="M12 1.25098C10.8275 1.25098 9.75551 1.75948 8.19088 2.50164L5.07878 3.97603C4.35402 4.3193 3.715 4.62196 3.26541 4.91927C2.81527 5.21694 2.25 5.70518 2.25 6.50098C2.25 7.29678 2.81527 7.78501 3.26541 8.08269C3.71499 8.37999 4.35401 8.68265 5.07876 9.02591L8.19089 10.5003C9.75551 11.2425 10.8275 11.751 12 11.751C13.1725 11.751 14.2445 11.2425 15.8091 10.5003L18.9212 9.02594C19.646 8.68266 20.285 8.38 20.7346 8.08269C21.1847 7.78501 21.75 7.29678 21.75 6.50098C21.75 5.70518 21.1847 5.21694 20.7346 4.91927C20.285 4.62196 19.646 4.31929 18.9212 3.97602L15.8091 2.50164C14.2445 1.75948 13.1725 1.25098 12 1.25098ZM8.84253 4.31496C10.6848 3.44222 11.3304 3.16113 12.0001 3.16113C12.6131 3.16113 13.2059 3.39666 14.7149 4.10591L7.06869 7.84879L5.99436 7.33984C5.18366 6.95578 4.67577 6.71247 4.35742 6.50204C4.67577 6.29161 5.18366 6.0483 5.99436 5.66425L8.84253 4.31496ZM9.28528 8.89818L16.9315 5.15529L18.0058 5.66424C18.8165 6.0483 19.3244 6.29161 19.6427 6.50204C19.3244 6.71247 18.8165 6.95579 18.0058 7.33984L15.1576 8.68913C13.3154 9.56187 12.6698 9.84295 12.0001 9.84295C11.387 9.84295 10.7942 9.60743 9.28528 8.89818Z" fill="#B3B3B3"/>
</svg>
