<svg width="71" height="70" viewBox="0 0 71 70" fill="none" xmlns="http://www.w3.org/2000/svg">
<path d="M70.2813 34.7988C70.2813 30.2287 69.3811 25.7034 67.6322 21.4811C65.8833 17.2589 63.3199 13.4225 60.0884 10.191C56.8568 6.95941 53.0204 4.396 48.7982 2.6471C44.5759 0.898196 40.0506 -0.00195312 35.4805 -0.00195312C30.9104 -0.00195312 26.385 0.898196 22.1628 2.6471C17.9406 4.396 14.1042 6.95941 10.8726 10.191C7.64105 13.4225 5.07764 17.2589 3.32874 21.4811C1.57984 25.7034 0.679687 30.2287 0.679688 34.7988C0.679688 44.0286 4.34619 52.8803 10.8726 59.4067C17.399 65.9331 26.2507 69.5996 35.4805 69.5996C44.7102 69.5996 53.5619 65.9331 60.0884 59.4067C66.6148 52.8803 70.2813 44.0286 70.2813 34.7988ZM6.47982 34.7988C6.47982 27.1074 9.53524 19.731 14.9739 14.2923C20.4126 8.8536 27.789 5.79818 35.4805 5.79818C43.1719 5.79818 50.5484 8.8536 55.987 14.2923C61.4257 19.731 64.4811 27.1074 64.4811 34.7988C64.4811 42.4903 61.4257 49.8667 55.987 55.3054C50.5484 60.7441 43.1719 63.7995 35.4805 63.7995C27.789 63.7995 20.4126 60.7441 14.9739 55.3054C9.53524 49.8667 6.47982 42.4903 6.47982 34.7988ZM29.6803 27.5487C29.6803 28.1199 29.5678 28.6856 29.3492 29.2134C29.1306 29.7412 28.8102 30.2207 28.4062 30.6247C28.0023 31.0286 27.5227 31.349 26.995 31.5676C26.4672 31.7863 25.9015 31.8988 25.3302 31.8988C24.759 31.8988 24.1933 31.7863 23.6655 31.5676C23.1378 31.349 22.6582 31.0286 22.2543 30.6247C21.8503 30.2207 21.5299 29.7412 21.3113 29.2134C21.0927 28.6856 20.9801 28.1199 20.9801 27.5487C20.9801 26.395 21.4385 25.2885 22.2543 24.4727C23.0701 23.6569 24.1765 23.1986 25.3302 23.1986C26.484 23.1986 27.5904 23.6569 28.4062 24.4727C29.222 25.2885 29.6803 26.395 29.6803 27.5487ZM49.9808 27.5487C49.9808 28.7024 49.5225 29.8089 48.7067 30.6247C47.8909 31.4405 46.7844 31.8988 45.6307 31.8988C44.477 31.8988 43.3705 31.4405 42.5547 30.6247C41.7389 29.8089 41.2806 28.7024 41.2806 27.5487C41.2806 26.395 41.7389 25.2885 42.5547 24.4727C43.3705 23.6569 44.477 23.1986 45.6307 23.1986C46.7844 23.1986 47.8909 23.6569 48.7067 24.4727C49.5225 25.2885 49.9808 26.395 49.9808 27.5487ZM24.6458 51.1668C30.011 44.8099 40.9442 44.8099 46.3151 51.1668C46.5548 51.4751 46.8543 51.7319 47.1956 51.9216C47.5369 52.1114 47.913 52.2303 48.3013 52.2711C48.6897 52.312 49.0823 52.274 49.4557 52.1594C49.829 52.0448 50.1753 51.856 50.4739 51.6044C50.7725 51.3527 51.0172 51.0433 51.1933 50.6947C51.3694 50.3462 51.4732 49.9656 51.4987 49.576C51.5241 49.1863 51.4706 48.7955 51.3414 48.427C51.2121 48.0585 51.0097 47.7199 50.7464 47.4315C43.0612 38.3253 27.8939 38.3253 20.2145 47.4315C19.9512 47.7199 19.7489 48.0585 19.6196 48.427C19.4903 48.7955 19.4368 49.1863 19.4623 49.576C19.4877 49.9656 19.5916 50.3462 19.7677 50.6947C19.9438 51.0433 20.1885 51.3527 20.4871 51.6044C20.7856 51.856 21.132 52.0448 21.5053 52.1594C21.8786 52.274 22.2712 52.312 22.6596 52.2711C23.048 52.2303 23.4241 52.1114 23.7654 51.9216C24.1067 51.7319 24.4062 51.4751 24.6458 51.1668Z" fill="#F21E1E" fill-opacity="0.93"/>
</svg>
