<svg width="14" height="14" viewBox="0 0 14 14" fill="none" xmlns="http://www.w3.org/2000/svg">
<g clip-path="url(#clip0_3253_10269)">
<path d="M1.66768 1.67846L9.00018 0.631374C9.04156 0.625437 9.08374 0.628466 9.12385 0.640255C9.16396 0.652044 9.20106 0.672317 9.23265 0.699701C9.26424 0.727085 9.28957 0.760939 9.30693 0.79897C9.32429 0.837 9.33327 0.878318 9.33327 0.920124V13.0803C9.33326 13.122 9.32429 13.1633 9.30697 13.2013C9.28964 13.2393 9.26436 13.2731 9.23284 13.3005C9.20132 13.3278 9.16429 13.3481 9.12425 13.36C9.08421 13.3718 9.0421 13.3749 9.00077 13.369L1.6671 12.322C1.52804 12.3022 1.4008 12.2328 1.30875 12.1267C1.2167 12.0207 1.16602 11.8849 1.16602 11.7445V2.25596C1.16602 2.1155 1.2167 1.97976 1.30875 1.87367C1.4008 1.76758 1.52863 1.69826 1.66768 1.67846ZM9.9166 1.75021H12.2499C12.4046 1.75021 12.553 1.81166 12.6624 1.92106C12.7718 2.03046 12.8333 2.17883 12.8333 2.33354V11.6669C12.8333 11.8216 12.7718 11.97 12.6624 12.0794C12.553 12.1887 12.4046 12.2502 12.2499 12.2502H9.9166V1.75021ZM5.94993 7.00021L7.58327 4.66687H6.18327L5.24993 6.00037L4.3166 4.66687H2.9166L4.54993 7.00021L2.9166 9.33354H4.3166L5.24993 8.00004L6.18327 9.33354H7.58327L5.94993 7.00021Z" fill="#1C963E"/>
</g>
<defs>
<clipPath id="clip0_3253_10269">
<rect width="14" height="14" fill="white"/>
</clipPath>
</defs>
</svg>
